HIERARCHY
ROOT Hips
{
    OFFSET 0.000000 0.000000 0.000000
    CHANNELS 6 Xposition Yposition Zposition Zrotation Xrotation Yrotation
    JOINT Spine
    {
        OFFSET -0.000000 14.517291 0.000000
        CHANNELS 3 Zrotation Xrotation Yrotation
        JOINT Spine1
        {
            OFFSET -0.000000 37.558300 0.000000
            CHANNELS 3 Zrotation Xrotation Yrotation
            JOINT Neck
            {
                OFFSET -0.000000 37.404057 3.400369
                CHANNELS 3 Zrotation Xrotation Yrotation
                JOINT Head
                {
                    OFFSET -0.000000 24.785618 -3.540803
                    CHANNELS 3 Zrotation Xrotation Yrotation
                    End Site
                    {
                        OFFSET -0.000000 35.408028 0.000000
                    }
                }
            }
            JOINT LeftShoulder
            {
                OFFSET 6.992933 33.973492 -0.192664
                CHANNELS 3 Zrotation Xrotation Yrotation
                JOINT LeftArm
                {
                    OFFSET 21.527611 0.000000 0.000000
                    CHANNELS 3 Zrotation Xrotation Yrotation
                    JOINT LeftForeArm
                    {
                        OFFSET 56.353916 0.000000 0.000000
                        CHANNELS 3 Zrotation Xrotation Yrotation
                        JOINT LeftHand
                        {
                            OFFSET 47.774071 0.000000 0.000000
                            CHANNELS 3 Zrotation Xrotation Yrotation
                            End Site
                            {
                                OFFSET 26.556021 0.000000 0.000000
                            }
                        }
                    }
                }
            }
            JOINT RightShoulder
            {
                OFFSET -7.065357 33.973492 -0.192664
                CHANNELS 3 Zrotation Xrotation Yrotation
                JOINT RightArm
                {
                    OFFSET -21.527611 0.000000 0.000000
                    CHANNELS 3 Zrotation Xrotation Yrotation
                    JOINT RightForeArm
                    {
                        OFFSET -56.353916 0.000000 0.000000
                        CHANNELS 3 Zrotation Xrotation Yrotation
                        JOINT RightHand
                        {
                            OFFSET -47.774071 0.000000 0.000000
                            CHANNELS 3 Zrotation Xrotation Yrotation
                            End Site
                            {
                                OFFSET -26.556021 0.000000 0.000000
                            }
                        }
                    }
                }
            }
        }
    }
    JOINT LeftUpLeg
    {
        OFFSET 17.704014 0.000000 0.000000
        CHANNELS 3 Zrotation Xrotation Yrotation
        JOINT LeftLeg
        {
            OFFSET -0.000000 -81.181816 0.000000
            CHANNELS 3 Zrotation Xrotation Yrotation
            JOINT LeftFoot
            {
                OFFSET -0.000000 -62.821102 0.000000
                CHANNELS 3 Zrotation Xrotation Yrotation
                JOINT LeftToeBase
                {
                    OFFSET -0.000000 -11.507608 26.556021
                    CHANNELS 3 Zrotation Xrotation Yrotation
                    End Site
                    {
                        OFFSET -0.000000 0.000000 7.081605
                    }
                }
            }
        }
    }
    JOINT RightUpLeg
    {
        OFFSET -17.704014 0.000000 0.000000
        CHANNELS 3 Zrotation Xrotation Yrotation
        JOINT RightLeg
        {
            OFFSET -0.000000 -81.181816 0.000000
            CHANNELS 3 Zrotation Xrotation Yrotation
            JOINT RightFoot
            {
                OFFSET -0.000000 -62.821102 0.000000
                CHANNELS 3 Zrotation Xrotation Yrotation
                JOINT RightToeBase
                {
                    OFFSET -0.000000 -11.507608 26.556021
                    CHANNELS 3 Zrotation Xrotation Yrotation
                    End Site
                    {
                        OFFSET -0.000000 0.000000 7.081605
                    }
                }
            }
        }
    }
}
MOTION
Frames:    11
Frame Time:    0.008333
-0.121114    156.694122    -27.968565    -0.002169    -3.748696    -34.526192    5.426874    -0.981177    1.928455    -4.855962    5.667527    0.865996    18.508593    -1.345881    12.209531    -11.385084    7.185462    8.810591    0.379467    10.372696    -13.894393    -35.891216    8.284722    -42.457436    42.221737    -44.494740    -35.737808    -17.950058    -29.288599    -29.665464    -7.660148    3.747886    -0.138629    35.414570    8.914448    68.848511    -6.482836    -26.441643    81.865059    22.231314    -16.115353    27.286566    14.438223    -14.815926    4.671856    -10.793992    14.240093    0.580198    -5.772273    3.364548    34.340164    0.000000    0.000000    0.000000    -12.890337    -1.631386    -6.565652    6.698217    31.985380    -0.786696    2.780051    -23.795086    -15.203177    0.000000    0.000000    0.000000    
-0.113069    156.712372    -27.989487    0.007243    -3.723445    -34.530895    5.438776    -0.992478    1.911396    -4.870707    5.660022    0.860524    18.514427    -1.328977    12.221236    -11.391445    7.168300    8.822439    0.374904    10.378106    -13.886261    -35.901016    8.277043    -42.440754    42.315311    -44.503761    -35.650364    -18.004938    -29.285442    -29.689632    -7.639795    3.756701    -0.185733    35.508427    9.046661    68.893265    -6.592100    -26.584608    81.885506    22.402206    -16.138023    27.265305    14.434183    -14.804672    4.664865    -10.763741    14.146336    0.587812    -5.804657    3.415967    34.330315    0.000000    0.000000    0.000000    -12.880475    -1.651897    -6.573506    6.687025    31.950666    -0.771783    2.735194    -23.729160    -15.148891    0.000000    0.000000    0.000000    
-0.105941    156.729706    -28.007067    0.017299    -3.700149    -34.537960    5.448936    -1.003404    1.894111    -4.884941    5.651115    0.854870    18.525078    -1.318458    12.229862    -11.402591    7.166119    8.830334    0.367028    10.385910    -13.883311    -35.920734    8.247954    -42.414864    42.363747    -44.516693    -35.605450    -17.992140    -29.308123    -29.671160    -7.617765    3.761122    -0.222520    35.588699    9.194347    68.933647    -6.712764    -26.744764    81.899811    22.599407    -16.162666    27.250544    14.427994    -14.799671    4.664967    -10.739564    14.073196    0.607361    -5.812444    3.464135    34.325535    0.000000    0.000000    0.000000    -12.868266    -1.653461    -6.369152    6.807605    31.849670    -1.035047    2.784610    -23.732008    -15.163078    0.000000    0.000000    0.000000    
-0.099005    156.745193    -28.024923    0.023884    -3.676259    -34.545414    5.459136    -1.009268    1.876242    -4.895294    5.639010    0.848766    18.548981    -1.309531    12.247252    -11.432812    7.165486    8.843564    0.358267    10.388291    -13.869892    -35.948383    8.236990    -42.404770    42.454460    -44.528378    -35.522923    -18.026455    -29.313557    -29.687231    -7.595966    3.759119    -0.262395    35.662945    9.337742    68.974457    -6.808661    -26.890453    81.925941    22.789442    -16.195440    27.225231    14.424273    -14.787116    4.668852    -10.706314    13.988589    0.621986    -5.831388    3.509558    34.305943    0.000000    0.000000    0.000000    -12.853541    -1.682979    -6.383202    6.784802    31.837177    -0.982775    2.787413    -23.701710    -15.191626    0.000000    0.000000    0.000000    
-0.092029    156.758194    -28.045044    0.035565    -3.656285    -34.552963    5.457102    -1.009752    1.863194    -4.906947    5.617943    0.844106    18.562181    -1.305849    12.252980    -11.426329    7.178386    8.849806    0.364726    10.391884    -13.873240    -35.991138    8.205494    -42.377651    42.504799    -44.526772    -35.482437    -18.039505    -29.305536    -29.699902    -7.561327    3.784598    -0.302510    35.754219    9.455516    69.022736    -6.876486    -27.021275    81.970764    22.982361    -16.232687    27.203592    14.405067    -14.763670    4.679900    -10.549464    13.912264    0.341883    -6.047787    3.493208    34.400913    0.000000    0.000000    0.000000    -12.853371    -1.714895    -6.345517    6.816146    31.825893    -1.012924    2.771065    -23.664585    -15.210588    0.000000    0.000000    0.000000    
-0.085546    156.768936    -28.066080    0.047750    -3.636917    -34.561329    5.455194    -1.013338    1.846674    -4.918525    5.606556    0.838617    18.583263    -1.291284    12.268459    -11.441967    7.163074    8.862142    0.365411    10.398829    -13.855245    -36.018402    8.184310    -42.376198    42.567760    -44.533302    -35.422440    -18.049614    -29.312897    -29.703026    -7.540054    3.808207    -0.345502    35.837864    9.589629    69.083450    -6.939378    -27.173105    82.026588    23.172268    -16.296276    27.182604    14.398864    -14.758188    4.695893    -10.519044    13.842823    0.338733    -6.078171    3.531303    34.391525    0.000000    0.000000    0.000000    -12.845157    -1.749476    -6.331513    6.815610    31.820755    -1.006030    2.775059    -23.649174    -15.249942    0.000000    0.000000    0.000000    
-0.081188    156.776596    -28.080564    0.050542    -3.629193    -34.569408    5.449419    -1.003953    1.826577    -4.917795    5.589417    0.831298    18.578827    -1.276184    12.274919    -11.433939    7.157960    8.872286    0.359833    10.408439    -13.846361    -36.056728    8.158380    -42.361759    42.630646    -44.536880    -35.368031    -18.031616    -29.324245    -29.686258    -7.519788    3.841660    -0.371671    35.945198    9.669334    69.122719    -6.959899    -27.240335    82.098747    23.373367    -16.297749    27.171343    14.402372    -14.759369    4.701593    -10.627285    13.787076    0.612942    -5.898674    3.616421    34.322536    0.000000    0.000000    0.000000    -12.840487    -1.763231    -6.316860    6.823147    31.810413    -1.007196    2.761537    -23.632336    -15.266358    0.000000    0.000000    0.000000    
-0.075511    156.785400    -28.096766    0.055976    -3.621944    -34.576206    5.446370    -0.992051    1.808830    -4.929436    5.570598    0.825390    18.591831    -1.267651    12.288000    -11.434415    7.161321    8.885542    0.358015    10.412192    -13.830681    -36.069172    8.170012    -42.355106    42.710758    -44.571213    -35.290638    -18.031254    -29.367643    -29.700977    -7.494892    3.875420    -0.413825    36.052322    9.746526    69.175339    -6.973416    -27.294443    82.174690    23.542526    -16.298624    27.158508    14.392965    -14.744883    4.697607    -10.600568    13.726992    0.582096    -5.913123    3.655862    34.350368    0.000000    0.000000    0.000000    -12.838329    -1.780127    -6.307750    6.824453    31.805742    -1.014394    2.761526    -23.619272    -15.267371    0.000000    0.000000    0.000000    
-0.073498    156.792847    -28.110207    0.059151    -3.619441    -34.588081    5.432243    -0.988865    1.797568    -4.926390    5.572266    0.821640    18.588400    -1.265768    12.290248    -11.415672    7.159765    8.890113    0.348962    10.419132    -13.822904    -36.069691    8.181355    -42.352043    42.812859    -44.603550    -35.195503    -18.035496    -29.410671    -29.692570    -7.477859    3.897184    -0.446246    36.142128    9.838446    69.210823    -7.047332    -27.379662    82.224068    23.755684    -16.272011    27.156855    14.384256    -14.718817    4.704315    -10.576799    13.660354    0.561658    -5.912961    3.697168    34.357246    0.000000    0.000000    0.000000    -12.836105    -1.787560    -6.294722    6.819638    31.790308    -1.035995    2.729778    -23.569683    -15.192977    0.000000    0.000000    0.000000    
-0.073393    156.797928    -28.123178    0.056888    -3.620236    -34.593830    5.417662    -0.978989    1.779433    -4.921985    5.568256    0.815367    18.600832    -1.249706    12.295929    -11.420154    7.151096    8.895454    0.349616    10.420136    -13.816607    -36.105263    8.159777    -42.335728    42.852402    -44.598633    -35.158466    -18.011683    -29.412281    -29.688486    -7.444921    3.930274    -0.474034    36.198593    9.926452    69.248390    -7.162613    -27.478060    82.247124    24.008421    -16.209681    27.192249    14.362350    -14.676721    4.707236    -10.413211    13.603217    0.256425    -6.120491    3.665336    34.456936    0.000000    0.000000    0.000000    -12.830235    -1.787306    -6.294050    6.819603    31.779573    -1.045885    2.781243    -23.594917    -15.232987    0.000000    0.000000    0.000000    
-0.072684    156.803711    -28.135099    0.053483    -3.618260    -34.599377    5.409013    -0.967991    1.761559    -4.920820    5.557732    0.809046    18.614037    -1.238882    12.307770    -11.423579    7.155754    8.907670    0.347368    10.430555    -13.806001    -36.103844    8.180307    -42.329491    42.945896    -44.624046    -35.070217    -18.003143    -29.448435    -29.691751    -7.417548    3.973609    -0.514075    36.264336    9.995350    69.306740    -7.280774    -27.538095    82.247849    24.207323    -16.120440    27.219309    14.369471    -14.673369    4.722161    -10.515421    13.565197    0.501611    -5.950081    3.728710    34.382195    0.000000    0.000000    0.000000    -12.824177    -1.788750    -6.305938    6.815479    31.770187    -1.050029    2.767336    -23.575466    -15.219641    0.000000    0.000000    0.000000    
